{
	"asset":{
		"generator":"Khronos glTF Blender I/O v3.5.30",
		"version":"2.0"
	},
	"scene":0,
	"scenes":[
		{
			"name":"Scene",
			"nodes":[
				0
			]
		}
	],
	"nodes":[
		{
			"mesh":0,
			"name":"TrainDR14"
		}
	],
	"materials":[
		{
			"doubleSided":true,
			"name":"TrainDr14",
			"normalTexture":{
				"index":0
			},
			"pbrMetallicRoughness":{
				"baseColorTexture":{
					"index":1
				},
				"metallicRoughnessTexture":{
					"index":2
				}
			}
		}
	],
	"meshes":[
		{
			"name":"Object003",
			"primitives":[
				{
					"attributes":{
						"POSITION":0,
						"TEXCOORD_0":1,
						"NORMAL":2
					},
					"indices":3,
					"material":0
				}
			]
		}
	],
	"textures":[
		{
			"sampler":0,
			"source":0
		},
		{
			"sampler":0,
			"source":1
		},
		{
			"sampler":0,
			"source":2
		}
	],
	"images":[
		{
			"mimeType":"image/jpeg",
			"name":"TrainDr14_Normal_DirectX",
			"uri":"TrainDr14_Normal_DirectX.jpg"
		},
		{
			"mimeType":"image/jpeg",
			"name":"TrainDr14_Base_Color",
			"uri":"TrainDr14_Base_Color.jpg"
		},
		{
			"mimeType":"image/png",
			"name":"TrainDr14_MetallicRoughness",
			"uri":"TrainDr14_MetallicRoughness.png"
		}
	],
	"accessors":[
		{
			"bufferView":0,
			"componentType":5126,
			"count":43517,
			"max":[
				0.15596744418144226,
				0.4717130661010742,
				0.5884281396865845
			],
			"min":[
				-0.15596744418144226,
				-0.004655247088521719,
				-0.7815948128700256
			],
			"type":"VEC3"
		},
		{
			"bufferView":1,
			"componentType":5126,
			"count":43517,
			"type":"VEC2"
		},
		{
			"bufferView":2,
			"componentType":5126,
			"count":43517,
			"type":"VEC3"
		},
		{
			"bufferView":3,
			"componentType":5123,
			"count":112962,
			"type":"SCALAR"
		}
	],
	"bufferViews":[
		{
			"buffer":0,
			"byteLength":522204,
			"byteOffset":0,
			"target":34962
		},
		{
			"buffer":0,
			"byteLength":348136,
			"byteOffset":522204,
			"target":34962
		},
		{
			"buffer":0,
			"byteLength":522204,
			"byteOffset":870340,
			"target":34962
		},
		{
			"buffer":0,
			"byteLength":225924,
			"byteOffset":1392544,
			"target":34963
		}
	],
	"samplers":[
		{
			"magFilter":9729,
			"minFilter":9987
		}
	],
	"buffers":[
		{
			"byteLength":1618468,
			"uri":"Train%20Dr14.bin"
		}
	]
}
