{
	"asset":{
		"generator":"Khronos glTF Blender I/O v3.6.28",
		"version":"2.0"
	},
	"extensionsUsed":[
		"KHR_lights_punctual"
	],
	"extensionsRequired":[
		"KHR_lights_punctual"
	],
	"extensions":{
		"KHR_lights_punctual":{
			"lights":[
				{
					"color":[
						0.8035638332366943,
						0.9032073616981506,
						1
					],
					"intensity":136.60000203549862,
					"type":"directional",
					"name":"Sun"
				},
				{
					"color":[
						1,
						1,
						1
					],
					"intensity":543.5141306588226,
					"type":"point",
					"name":"Point"
				}
			]
		}
	},
	"scene":0,
	"scenes":[
		{
			"name":"Scene",
			"nodes":[
				8,
				18,
				19,
				20,
				21,
				22
			]
		}
	],
	"nodes":[
		{
			"mesh":0,
			"name":"dutch_ship_medium_hull",
			"rotation":[
				-0.7071068286895752,
				0,
				0,
				0.7071068286895752
			],
			"scale":[
				0.08131332695484161,
				0.08131333440542221,
				0.08131332695484161
			]
		},
		{
			"mesh":1,
			"name":"dutch_ship_medium_rigging",
			"rotation":[
				-0.7071068286895752,
				0,
				0,
				0.7071068286895752
			],
			"scale":[
				0.08131332695484161,
				0.08131333440542221,
				0.08131332695484161
			]
		},
		{
			"mesh":2,
			"name":"dutch_ship_medium_sails",
			"rotation":[
				-0.7071068286895752,
				0,
				0,
				0.7071068286895752
			],
			"scale":[
				0.08131332695484161,
				0.08131333440542221,
				0.08131332695484161
			]
		},
		{
			"name":"LIGHT_SPAWN.003",
			"rotation":[
				-0.7072144746780396,
				-0.023021560162305832,
				0.022006284445524216,
				0.7062814235687256
			],
			"scale":[
				0.15856611728668213,
				0.11426487565040588,
				0.1585661768913269
			],
			"translation":[
				0.17039868235588074,
				0.0035506198182702065,
				-0.2364930659532547
			]
		},
		{
			"name":"LIGHT_SPAWN.004",
			"rotation":[
				-0.7023906111717224,
				-0.05847944691777229,
				-0.01780354604125023,
				0.7091619372367859
			],
			"scale":[
				0.09922005236148834,
				0.05515902861952782,
				0.09959202259778976
			],
			"translation":[
				-0.5565582513809204,
				0.013571977615356445,
				-0.3338218033313751
			]
		},
		{
			"name":"LIGHT_SPAWN.010",
			"rotation":[
				-0.7033630013465881,
				0.026885295286774635,
				0.04562745615839958,
				0.7088552713394165
			],
			"scale":[
				0.11090264469385147,
				0.05289987102150917,
				0.11090267449617386
			],
			"translation":[
				0.3950079381465912,
				0.004892564378678799,
				-0.3160690665245056
			]
		},
		{
			"name":"LIGHT_SPAWN.011",
			"rotation":[
				-0.7023906111717224,
				-0.05847944691777229,
				-0.017803547903895378,
				0.7091619372367859
			],
			"scale":[
				0.11586112529039383,
				0.104128897190094,
				0.11539045721292496
			],
			"translation":[
				-0.34303638339042664,
				0.007891158573329449,
				-0.2841022312641144
			]
		},
		{
			"name":"LIGHT_SPAWN.012",
			"rotation":[
				-0.7049375176429749,
				-0.03468836098909378,
				0.009955555200576782,
				0.708350658416748
			],
			"scale":[
				0.15568269789218903,
				0.10442608594894409,
				0.15535429120063782
			],
			"translation":[
				-0.09191650152206421,
				0.0010217687813565135,
				-0.25831297039985657
			]
		},
		{
			"children":[
				0,
				1,
				2,
				3,
				4,
				5,
				6,
				7
			],
			"name":"Ship1",
			"rotation":[
				0.7067549228668213,
				0.022305509075522423,
				-0.022305509075522423,
				0.7067548632621765
			],
			"scale":[
				12.29810619354248,
				12.29810619354248,
				12.29810619354248
			],
			"translation":[
				-10.612876892089844,
				0,
				-5.33975887298584
			]
		},
		{
			"mesh":3,
			"name":"dutch_ship_large_01_hull",
			"rotation":[
				-0.7071068286895752,
				0,
				0,
				0.7071068286895752
			],
			"scale":[
				0.06515134871006012,
				0.06515134871006012,
				0.06515134871006012
			]
		},
		{
			"mesh":4,
			"name":"dutch_ship_large_01_rigging",
			"rotation":[
				-0.7071068286895752,
				0,
				0,
				0.7071068286895752
			],
			"scale":[
				0.06515134871006012,
				0.06515134871006012,
				0.06515134871006012
			]
		},
		{
			"mesh":5,
			"name":"dutch_ship_large_01_sails",
			"rotation":[
				-0.7071068286895752,
				0,
				0,
				0.7071068286895752
			],
			"scale":[
				0.06515134871006012,
				0.06515134871006012,
				0.06515134871006012
			]
		},
		{
			"name":"LIGHT_SPAWN",
			"rotation":[
				-0.7061551213264465,
				-0.036672938615083694,
				0.03667294234037399,
				0.7061551809310913
			],
			"scale":[
				0.22318999469280243,
				0.08795201033353806,
				0.22318999469280243
			],
			"translation":[
				0.2021341621875763,
				0.009606579318642616,
				-0.31258636713027954
			]
		},
		{
			"name":"LIGHT_SPAWN.001",
			"rotation":[
				-0.7173377275466919,
				-0.13177652657032013,
				-0.05355643481016159,
				0.6820508241653442
			],
			"scale":[
				0.10100461542606354,
				0.041719481348991394,
				0.10304854065179825
			],
			"translation":[
				-0.43466734886169434,
				-0.002132183173671365,
				-0.475310742855072
			]
		},
		{
			"name":"LIGHT_SPAWN.002",
			"rotation":[
				-0.7005735039710999,
				0.00475953659042716,
				0.07460224628448486,
				0.709653913974762
			],
			"scale":[
				0.13631495833396912,
				0.06515135616064072,
				0.1363149732351303
			],
			"translation":[
				0.784493088722229,
				0.001789034460671246,
				-0.31693747639656067
			]
		},
		{
			"name":"LIGHT_SPAWN.008",
			"rotation":[
				-0.705499529838562,
				-0.07941760122776031,
				-0.006582947913557291,
				0.7042158842086792
			],
			"scale":[
				0.16666549444198608,
				0.06515134871006012,
				0.16666541993618011
			],
			"translation":[
				-0.18457543849945068,
				0.007934266701340675,
				-0.38506656885147095
			]
		},
		{
			"name":"LIGHT_SPAWN.009",
			"rotation":[
				-0.7007765173912048,
				-0.018659910187125206,
				0.055210553109645844,
				0.7109963893890381
			],
			"scale":[
				0.14759784936904907,
				0.04963105544447899,
				0.14766907691955566
			],
			"translation":[
				0.5676819086074829,
				0.005724519025534391,
				-0.3526577055454254
			]
		},
		{
			"name":"LIGHT_SPAWN.013",
			"rotation":[
				-0.7061551213264465,
				-0.036672938615083694,
				0.03667294234037399,
				0.7061551809310913
			],
			"scale":[
				0.22318999469280243,
				0.08795201033353806,
				0.22318999469280243
			],
			"translation":[
				0.2088385969400406,
				0.009094621054828167,
				-0.3089774549007416
			]
		},
		{
			"children":[
				9,
				10,
				11,
				12,
				13,
				14,
				15,
				16,
				17
			],
			"name":"Ship2",
			"rotation":[
				0.7047107219696045,
				0.058161523193120956,
				-0.058161523193120956,
				0.7047107815742493
			],
			"scale":[
				15.348875999450684,
				15.348875999450684,
				15.348875999450684
			],
			"translation":[
				-1.8434557914733887,
				0,
				18.9815731048584
			]
		},
		{
			"mesh":6,
			"name":"Plane",
			"scale":[
				0.6865997910499573,
				0.6865997910499573,
				0.6865997910499573
			],
			"translation":[
				0.811331033706665,
				0,
				-2.487288475036621
			]
		},
		{
			"extensions":{
				"KHR_lights_punctual":{
					"light":0
				}
			},
			"name":"Sun",
			"rotation":[
				-0.8400968313217163,
				0.11309795081615448,
				-0.13733653724193573,
				0.5124303698539734
			],
			"translation":[
				27.500293731689453,
				40.12952423095703,
				-50.74226379394531
			]
		},
		{
			"extensions":{
				"KHR_lights_punctual":{
					"light":1
				}
			},
			"name":"Point",
			"rotation":[
				-0.7071068286895752,
				0,
				0,
				0.7071068286895752
			],
			"translation":[
				-1.4410066604614258,
				3.613313674926758,
				-1.1156675815582275
			]
		},
		{
			"name":"LIGHT_SPAWN.014",
			"scale":[
				9.357294082641602,
				1.0418237447738647,
				9.357294082641602
			],
			"translation":[
				-5.659299850463867,
				1.0237809419631958,
				5.993279933929443
			]
		}
	],
	"materials":[
		{
			"doubleSided":true,
			"name":"dutch_ship_medium_hull",
			"normalTexture":{
				"index":0
			},
			"pbrMetallicRoughness":{
				"baseColorTexture":{
					"index":1
				},
				"metallicRoughnessTexture":{
					"index":2
				}
			}
		},
		{
			"doubleSided":true,
			"name":"dutch_ship_medium_rigging",
			"normalTexture":{
				"index":3
			},
			"pbrMetallicRoughness":{
				"baseColorTexture":{
					"index":4
				},
				"metallicRoughnessTexture":{
					"index":5
				}
			}
		},
		{
			"alphaCutoff":0.5,
			"alphaMode":"MASK",
			"doubleSided":true,
			"name":"dutch_ship_medium_sails",
			"normalTexture":{
				"index":6
			},
			"pbrMetallicRoughness":{
				"baseColorTexture":{
					"index":7
				},
				"metallicFactor":0,
				"metallicRoughnessTexture":{
					"index":8
				}
			}
		},
		{
			"doubleSided":true,
			"name":"dutch_ship_large_01_hull",
			"normalTexture":{
				"index":9
			},
			"pbrMetallicRoughness":{
				"baseColorTexture":{
					"index":10
				},
				"metallicRoughnessTexture":{
					"index":11
				}
			}
		},
		{
			"doubleSided":true,
			"name":"dutch_ship_large_01_rigging",
			"normalTexture":{
				"index":12
			},
			"pbrMetallicRoughness":{
				"baseColorTexture":{
					"index":13
				},
				"metallicRoughnessTexture":{
					"index":14
				}
			}
		},
		{
			"alphaCutoff":0.5,
			"alphaMode":"MASK",
			"doubleSided":true,
			"name":"dutch_ship_large_01_sails",
			"normalTexture":{
				"index":15
			},
			"pbrMetallicRoughness":{
				"baseColorTexture":{
					"index":16
				},
				"metallicFactor":0,
				"metallicRoughnessTexture":{
					"index":17
				}
			}
		},
		{
			"doubleSided":true,
			"name":"Material.001",
			"normalTexture":{
				"index":18
			},
			"pbrMetallicRoughness":{
				"baseColorFactor":[
					0,
					0,
					0,
					1
				],
				"roughnessFactor":0.20000000298023224
			}
		}
	],
	"meshes":[
		{
			"name":"x-Boats-Dutch-medium-baseB-joined",
			"primitives":[
				{
					"attributes":{
						"POSITION":0,
						"NORMAL":1,
						"TEXCOORD_0":2,
						"TANGENT":3
					},
					"indices":4,
					"material":0
				}
			]
		},
		{
			"name":"x-Boats-Dutch-medium-rigging-joined",
			"primitives":[
				{
					"attributes":{
						"POSITION":5,
						"NORMAL":6,
						"TEXCOORD_0":7,
						"TANGENT":8
					},
					"indices":9,
					"material":1
				}
			]
		},
		{
			"name":"Plane.072",
			"primitives":[
				{
					"attributes":{
						"POSITION":10,
						"NORMAL":11,
						"TEXCOORD_0":12,
						"TANGENT":13
					},
					"indices":14,
					"material":2
				}
			]
		},
		{
			"name":"x-Boats-Dutch-large-baseA-joined",
			"primitives":[
				{
					"attributes":{
						"POSITION":15,
						"NORMAL":16,
						"TEXCOORD_0":17,
						"TANGENT":18
					},
					"indices":19,
					"material":3
				}
			]
		},
		{
			"name":"x-Boats-Dutch-large-sails-closed-joined",
			"primitives":[
				{
					"attributes":{
						"POSITION":20,
						"NORMAL":21,
						"TEXCOORD_0":22,
						"TANGENT":23
					},
					"indices":24,
					"material":4
				}
			]
		},
		{
			"name":"Plane.067",
			"primitives":[
				{
					"attributes":{
						"POSITION":25,
						"NORMAL":26,
						"TEXCOORD_0":27,
						"TANGENT":28
					},
					"indices":14,
					"material":5
				}
			]
		},
		{
			"name":"Plane",
			"primitives":[
				{
					"attributes":{
						"POSITION":29,
						"NORMAL":30,
						"TEXCOORD_0":31,
						"TANGENT":32
					},
					"indices":33,
					"material":6
				}
			]
		}
	],
	"textures":[
		{
			"sampler":0,
			"source":0
		},
		{
			"sampler":0,
			"source":1
		},
		{
			"sampler":0,
			"source":2
		},
		{
			"sampler":0,
			"source":3
		},
		{
			"sampler":0,
			"source":4
		},
		{
			"sampler":0,
			"source":5
		},
		{
			"sampler":0,
			"source":6
		},
		{
			"sampler":0,
			"source":7
		},
		{
			"sampler":0,
			"source":8
		},
		{
			"sampler":0,
			"source":9
		},
		{
			"sampler":0,
			"source":10
		},
		{
			"sampler":0,
			"source":11
		},
		{
			"sampler":0,
			"source":12
		},
		{
			"sampler":0,
			"source":13
		},
		{
			"sampler":0,
			"source":14
		},
		{
			"sampler":0,
			"source":15
		},
		{
			"sampler":0,
			"source":16
		},
		{
			"sampler":0,
			"source":17
		},
		{
			"sampler":0,
			"source":18
		}
	],
	"images":[
		{
			"mimeType":"image/jpeg",
			"name":"dutch_ship_medium_hull_nor_gl",
			"uri":"../../../../../../../Desktop/dutch_ship_medium_4k.gltf/textures/dutch_ship_medium_hull_nor_gl_4k.jpg"
		},
		{
			"mimeType":"image/jpeg",
			"name":"dutch_ship_medium_hull_diff",
			"uri":"../../../../../../../Desktop/dutch_ship_medium_4k.gltf/textures/dutch_ship_medium_hull_diff_4k.jpg"
		},
		{
			"mimeType":"image/jpeg",
			"name":"dutch_ship_medium_hull_metal-dutch_ship_medium_hull_rough",
			"uri":"../../../../../../../Desktop/dutch_ship_medium_4k.gltf/textures/dutch_ship_medium_hull_arm_4k.jpg"
		},
		{
			"mimeType":"image/jpeg",
			"name":"dutch_ship_medium_rigging_nor_gl",
			"uri":"../../../../../../../Desktop/dutch_ship_medium_4k.gltf/textures/dutch_ship_medium_rigging_nor_gl_4k.jpg"
		},
		{
			"mimeType":"image/jpeg",
			"name":"dutch_ship_medium_rigging_diff",
			"uri":"../../../../../../../Desktop/dutch_ship_medium_4k.gltf/textures/dutch_ship_medium_rigging_diff_4k.jpg"
		},
		{
			"mimeType":"image/jpeg",
			"name":"dutch_ship_medium_rigging_metal-dutch_ship_medium_rigging_rough",
			"uri":"../../../../../../../Desktop/dutch_ship_medium_4k.gltf/textures/dutch_ship_medium_rigging_arm_4k.jpg"
		},
		{
			"mimeType":"image/jpeg",
			"name":"dutch_ship_medium_sails_nor_gl",
			"uri":"../../../../../../../Desktop/dutch_ship_medium_4k.gltf/textures/dutch_ship_medium_sails_nor_gl_4k.jpg"
		},
		{
			"mimeType":"image/png",
			"name":"dutch_ship_medium_sails_diff-dutch_ship_medium_sails_alpha",
			"uri":"../../../../../../../Desktop/dutch_ship_medium_4k.gltf/textures/dutch_ship_medium_sails_diff_4k.jpg"
		},
		{
			"mimeType":"image/jpeg",
			"name":"dutch_ship_medium_sails_rough",
			"uri":"../../../../../../../Desktop/dutch_ship_medium_4k.gltf/textures/dutch_ship_medium_sails_arm_4k.jpg"
		},
		{
			"mimeType":"image/jpeg",
			"name":"dutch_ship_large_01_hull_nor_gl",
			"uri":"../../../../../../../Desktop/dutch_ship_large_01_4k.gltf/textures/dutch_ship_large_01_hull_nor_gl_4k.jpg"
		},
		{
			"mimeType":"image/jpeg",
			"name":"dutch_ship_large_01_hull_diff",
			"uri":"../../../../../../../Desktop/dutch_ship_large_01_4k.gltf/textures/dutch_ship_large_01_hull_diff_4k.jpg"
		},
		{
			"mimeType":"image/jpeg",
			"name":"dutch_ship_large_01_hull_metal-dutch_ship_large_01_hull_rough",
			"uri":"../../../../../../../Desktop/dutch_ship_large_01_4k.gltf/textures/dutch_ship_large_01_hull_arm_4k.jpg"
		},
		{
			"mimeType":"image/jpeg",
			"name":"dutch_ship_large_01_rigging_nor_gl",
			"uri":"../../../../../../../Desktop/dutch_ship_large_01_4k.gltf/textures/dutch_ship_large_01_rigging_nor_gl_4k.jpg"
		},
		{
			"mimeType":"image/jpeg",
			"name":"dutch_ship_large_01_rigging_diff",
			"uri":"../../../../../../../Desktop/dutch_ship_large_01_4k.gltf/textures/dutch_ship_large_01_rigging_diff_4k.jpg"
		},
		{
			"mimeType":"image/jpeg",
			"name":"dutch_ship_large_01_rigging_metal-dutch_ship_large_01_rigging_r",
			"uri":"../../../../../../../Desktop/dutch_ship_large_01_4k.gltf/textures/dutch_ship_large_01_rigging_arm_4k.jpg"
		},
		{
			"mimeType":"image/jpeg",
			"name":"dutch_ship_large_01_sails_nor_gl",
			"uri":"../../../../../../../Desktop/dutch_ship_large_01_4k.gltf/textures/dutch_ship_large_01_sails_nor_gl_4k.jpg"
		},
		{
			"mimeType":"image/png",
			"name":"dutch_ship_large_01_sails_diff-dutch_ship_large_01_sails_alpha",
			"uri":"../../../../../../../Desktop/dutch_ship_large_01_4k.gltf/textures/dutch_ship_large_01_sails_diff_4k.jpg"
		},
		{
			"mimeType":"image/jpeg",
			"name":"dutch_ship_large_01_sails_rough",
			"uri":"../../../../../../../Desktop/dutch_ship_large_01_4k.gltf/textures/dutch_ship_large_01_sails_arm_4k.jpg"
		},
		{
			"mimeType":"image/png",
			"name":"Waves",
			"uri":"textures/Waves_normals.png"
		}
	],
	"accessors":[
		{
			"bufferView":0,
			"componentType":5126,
			"count":26766,
			"max":[
				11.63282585144043,
				5.971731662750244,
				2.599379539489746
			],
			"min":[
				-10.325664520263672,
				-1.9999947547912598,
				-2.602752923965454
			],
			"type":"VEC3"
		},
		{
			"bufferView":1,
			"componentType":5126,
			"count":26766,
			"type":"VEC3"
		},
		{
			"bufferView":2,
			"componentType":5126,
			"count":26766,
			"type":"VEC2"
		},
		{
			"bufferView":3,
			"componentType":5126,
			"count":26766,
			"type":"VEC4"
		},
		{
			"bufferView":4,
			"componentType":5123,
			"count":83694,
			"type":"SCALAR"
		},
		{
			"bufferView":5,
			"componentType":5126,
			"count":38364,
			"max":[
				13.74468994140625,
				22.657127380371094,
				3.320786237716675
			],
			"min":[
				-9.983352661132812,
				1.1995306015014648,
				-3.4880359172821045
			],
			"type":"VEC3"
		},
		{
			"bufferView":6,
			"componentType":5126,
			"count":38364,
			"type":"VEC3"
		},
		{
			"bufferView":7,
			"componentType":5126,
			"count":38364,
			"type":"VEC2"
		},
		{
			"bufferView":8,
			"componentType":5126,
			"count":38364,
			"type":"VEC4"
		},
		{
			"bufferView":9,
			"componentType":5123,
			"count":101148,
			"type":"SCALAR"
		},
		{
			"bufferView":10,
			"componentType":5126,
			"count":4020,
			"max":[
				8.375848770141602,
				16.878726959228516,
				2.797043800354004
			],
			"min":[
				-1.5351202487945557,
				4.7319488525390625,
				-3.2490220069885254
			],
			"type":"VEC3"
		},
		{
			"bufferView":11,
			"componentType":5126,
			"count":4020,
			"type":"VEC3"
		},
		{
			"bufferView":12,
			"componentType":5126,
			"count":4020,
			"type":"VEC2"
		},
		{
			"bufferView":13,
			"componentType":5126,
			"count":4020,
			"type":"VEC4"
		},
		{
			"bufferView":14,
			"componentType":5123,
			"count":22644,
			"type":"SCALAR"
		},
		{
			"bufferView":15,
			"componentType":5126,
			"count":73078,
			"max":[
				17.344751358032227,
				10.068502426147461,
				4.291064262390137
			],
			"min":[
				-13.030969619750977,
				-1.9159564971923828,
				-4.096353054046631
			],
			"type":"VEC3"
		},
		{
			"bufferView":16,
			"componentType":5126,
			"count":73078,
			"type":"VEC3"
		},
		{
			"bufferView":17,
			"componentType":5126,
			"count":73078,
			"type":"VEC2"
		},
		{
			"bufferView":18,
			"componentType":5126,
			"count":73078,
			"type":"VEC4"
		},
		{
			"bufferView":19,
			"componentType":5125,
			"count":206952,
			"type":"SCALAR"
		},
		{
			"bufferView":20,
			"componentType":5126,
			"count":40929,
			"max":[
				20.4145450592041,
				30.16288948059082,
				4.2723894119262695
			],
			"min":[
				-13.836669921875,
				2.9227380752563477,
				-4.087569236755371
			],
			"type":"VEC3"
		},
		{
			"bufferView":21,
			"componentType":5126,
			"count":40929,
			"type":"VEC3"
		},
		{
			"bufferView":22,
			"componentType":5126,
			"count":40929,
			"type":"VEC2"
		},
		{
			"bufferView":23,
			"componentType":5126,
			"count":40929,
			"type":"VEC4"
		},
		{
			"bufferView":24,
			"componentType":5123,
			"count":102252,
			"type":"SCALAR"
		},
		{
			"bufferView":25,
			"componentType":5126,
			"count":4020,
			"max":[
				12.582073211669922,
				23.06194496154785,
				4.0138959884643555
			],
			"min":[
				-1.6495299339294434,
				6.281797409057617,
				-4.093808650970459
			],
			"type":"VEC3"
		},
		{
			"bufferView":26,
			"componentType":5126,
			"count":4020,
			"type":"VEC3"
		},
		{
			"bufferView":27,
			"componentType":5126,
			"count":4020,
			"type":"VEC2"
		},
		{
			"bufferView":28,
			"componentType":5126,
			"count":4020,
			"type":"VEC4"
		},
		{
			"bufferView":29,
			"componentType":5126,
			"count":4,
			"max":[
				38.82897186279297,
				0,
				66.48516082763672
			],
			"min":[
				-53.992488861083984,
				0,
				-38.82897186279297
			],
			"type":"VEC3"
		},
		{
			"bufferView":30,
			"componentType":5126,
			"count":4,
			"type":"VEC3"
		},
		{
			"bufferView":31,
			"componentType":5126,
			"count":4,
			"type":"VEC2"
		},
		{
			"bufferView":32,
			"componentType":5126,
			"count":4,
			"type":"VEC4"
		},
		{
			"bufferView":33,
			"componentType":5123,
			"count":6,
			"type":"SCALAR"
		}
	],
	"bufferViews":[
		{
			"buffer":0,
			"byteLength":321192,
			"byteOffset":0,
			"target":34962
		},
		{
			"buffer":0,
			"byteLength":321192,
			"byteOffset":321192,
			"target":34962
		},
		{
			"buffer":0,
			"byteLength":214128,
			"byteOffset":642384,
			"target":34962
		},
		{
			"buffer":0,
			"byteLength":428256,
			"byteOffset":856512,
			"target":34962
		},
		{
			"buffer":0,
			"byteLength":167388,
			"byteOffset":1284768,
			"target":34963
		},
		{
			"buffer":0,
			"byteLength":460368,
			"byteOffset":1452156,
			"target":34962
		},
		{
			"buffer":0,
			"byteLength":460368,
			"byteOffset":1912524,
			"target":34962
		},
		{
			"buffer":0,
			"byteLength":306912,
			"byteOffset":2372892,
			"target":34962
		},
		{
			"buffer":0,
			"byteLength":613824,
			"byteOffset":2679804,
			"target":34962
		},
		{
			"buffer":0,
			"byteLength":202296,
			"byteOffset":3293628,
			"target":34963
		},
		{
			"buffer":0,
			"byteLength":48240,
			"byteOffset":3495924,
			"target":34962
		},
		{
			"buffer":0,
			"byteLength":48240,
			"byteOffset":3544164,
			"target":34962
		},
		{
			"buffer":0,
			"byteLength":32160,
			"byteOffset":3592404,
			"target":34962
		},
		{
			"buffer":0,
			"byteLength":64320,
			"byteOffset":3624564,
			"target":34962
		},
		{
			"buffer":0,
			"byteLength":45288,
			"byteOffset":3688884,
			"target":34963
		},
		{
			"buffer":0,
			"byteLength":876936,
			"byteOffset":3734172,
			"target":34962
		},
		{
			"buffer":0,
			"byteLength":876936,
			"byteOffset":4611108,
			"target":34962
		},
		{
			"buffer":0,
			"byteLength":584624,
			"byteOffset":5488044,
			"target":34962
		},
		{
			"buffer":0,
			"byteLength":1169248,
			"byteOffset":6072668,
			"target":34962
		},
		{
			"buffer":0,
			"byteLength":827808,
			"byteOffset":7241916,
			"target":34963
		},
		{
			"buffer":0,
			"byteLength":491148,
			"byteOffset":8069724,
			"target":34962
		},
		{
			"buffer":0,
			"byteLength":491148,
			"byteOffset":8560872,
			"target":34962
		},
		{
			"buffer":0,
			"byteLength":327432,
			"byteOffset":9052020,
			"target":34962
		},
		{
			"buffer":0,
			"byteLength":654864,
			"byteOffset":9379452,
			"target":34962
		},
		{
			"buffer":0,
			"byteLength":204504,
			"byteOffset":10034316,
			"target":34963
		},
		{
			"buffer":0,
			"byteLength":48240,
			"byteOffset":10238820,
			"target":34962
		},
		{
			"buffer":0,
			"byteLength":48240,
			"byteOffset":10287060,
			"target":34962
		},
		{
			"buffer":0,
			"byteLength":32160,
			"byteOffset":10335300,
			"target":34962
		},
		{
			"buffer":0,
			"byteLength":64320,
			"byteOffset":10367460,
			"target":34962
		},
		{
			"buffer":0,
			"byteLength":48,
			"byteOffset":10431780,
			"target":34962
		},
		{
			"buffer":0,
			"byteLength":48,
			"byteOffset":10431828,
			"target":34962
		},
		{
			"buffer":0,
			"byteLength":32,
			"byteOffset":10431876,
			"target":34962
		},
		{
			"buffer":0,
			"byteLength":64,
			"byteOffset":10431908,
			"target":34962
		},
		{
			"buffer":0,
			"byteLength":12,
			"byteOffset":10431972,
			"target":34963
		}
	],
	"samplers":[
		{
			"magFilter":9729,
			"minFilter":9987
		}
	],
	"buffers":[
		{
			"byteLength":10431984,
			"uri":"pirates.bin"
		}
	]
}
