{
	"asset":{
		"generator":"Khronos glTF Blender I/O v4.3.47",
		"version":"2.0"
	},
	"extensionsUsed":[
		"KHR_lights_punctual"
	],
	"extensionsRequired":[
		"KHR_lights_punctual"
	],
	"extensions":{
		"KHR_lights_punctual":{
			"lights":[
				{
					"color":[
						1,
						1,
						1
					],
					"intensity":341.5,
					"type":"directional",
					"name":"Sun.011"
				}
			]
		}
	},
	"scene":0,
	"scenes":[
		{
			"name":"Scene",
			"nodes":[
				0,
				1,
				2,
				3,
				6
			]
		}
	],
	"nodes":[
		{
			"mesh":0,
			"name":"outdoor_table_chair_set_01_chair_01",
			"rotation":[
				0,
				-0.6162720322608948,
				0,
				0.7875334024429321
			],
			"scale":[
				3.307915210723877,
				3.307915449142456,
				3.307915210723877
			],
			"translation":[
				0,
				-0.8256345987319946,
				0
			]
		},
		{
			"mesh":1,
			"name":"outdoor_table_chair_set_01_table",
			"rotation":[
				0,
				-0.7071068286895752,
				0,
				0.7071067094802856
			],
			"scale":[
				3.307915687561035,
				3.307915449142456,
				3.307915687561035
			],
			"translation":[
				0,
				-0.8393692374229431,
				0
			]
		},
		{
			"mesh":2,
			"name":"outdoor_table_chair_set_01_chair_02",
			"rotation":[
				0,
				-0.6062332987785339,
				0,
				0.7952868938446045
			],
			"scale":[
				3.307915210723877,
				3.307915449142456,
				3.307915210723877
			],
			"translation":[
				0,
				-0.8256345987319946,
				0
			]
		},
		{
			"mesh":3,
			"name":"Plane",
			"scale":[
				0.699999988079071,
				0.699999988079071,
				0.699999988079071
			],
			"translation":[
				0.01681360974907875,
				-0.8363809585571289,
				0.45586615800857544
			]
		},
		{
			"name":"Empty.011",
			"rotation":[
				0.7071068286895752,
				0,
				0,
				0.7071068286895752
			]
		},
		{
			"children":[
				4
			],
			"extensions":{
				"KHR_lights_punctual":{
					"light":0
				}
			},
			"name":"Sun.011",
			"rotation":[
				-0.7540836334228516,
				0,
				0,
				0.6567783951759338
			],
			"scale":[
				6,
				6,
				6
			]
		},
		{
			"children":[
				5
			],
			"name":"PIVOT",
			"rotation":[
				-0.31820887327194214,
				0,
				0,
				0.9480206370353699
			]
		}
	],
	"materials":[
		{
			"doubleSided":true,
			"name":"outdoor_table_chair_set_01_chair",
			"normalTexture":{
				"index":0
			},
			"pbrMetallicRoughness":{
				"baseColorTexture":{
					"index":1
				},
				"metallicRoughnessTexture":{
					"index":2
				}
			}
		},
		{
			"doubleSided":true,
			"name":"outdoor_table_chair_set_01_table",
			"normalTexture":{
				"index":3
			},
			"pbrMetallicRoughness":{
				"baseColorTexture":{
					"index":4
				},
				"metallicRoughnessTexture":{
					"index":5
				}
			}
		},
		{
			"doubleSided":true,
			"name":"Material.001",
			"normalTexture":{
				"index":6
			},
			"pbrMetallicRoughness":{
				"baseColorTexture":{
					"index":7
				},
				"metallicFactor":0,
				"metallicRoughnessTexture":{
					"index":8
				}
			}
		}
	],
	"meshes":[
		{
			"name":"Folding_Chair_Wood",
			"primitives":[
				{
					"attributes":{
						"POSITION":0,
						"NORMAL":1,
						"TEXCOORD_0":2
					},
					"indices":3,
					"material":0
				}
			]
		},
		{
			"name":"Folding_Table_Wood.001",
			"primitives":[
				{
					"attributes":{
						"POSITION":4,
						"NORMAL":5,
						"TEXCOORD_0":6
					},
					"indices":7,
					"material":1
				}
			]
		},
		{
			"name":"Folding_Chair_Wood.001",
			"primitives":[
				{
					"attributes":{
						"POSITION":8,
						"NORMAL":9,
						"TEXCOORD_0":10
					},
					"indices":11,
					"material":0
				}
			]
		},
		{
			"name":"Plane",
			"primitives":[
				{
					"attributes":{
						"POSITION":12,
						"NORMAL":13,
						"TEXCOORD_0":14
					},
					"indices":15,
					"material":2
				}
			]
		}
	],
	"textures":[
		{
			"sampler":0,
			"source":0
		},
		{
			"sampler":0,
			"source":1
		},
		{
			"sampler":0,
			"source":2
		},
		{
			"sampler":0,
			"source":3
		},
		{
			"sampler":0,
			"source":4
		},
		{
			"sampler":0,
			"source":5
		},
		{
			"sampler":0,
			"source":6
		},
		{
			"sampler":0,
			"source":7
		},
		{
			"sampler":0,
			"source":8
		}
	],
	"images":[
		{
			"mimeType":"image/jpeg",
			"name":"outdoor_table_chair_set_01_chair_nor_gl_2k",
			"uri":"outdoor_table_chair_set_01_chair_nor_gl_2k.jpg"
		},
		{
			"mimeType":"image/jpeg",
			"name":"outdoor_table_chair_set_01_chair_diff_2k",
			"uri":"outdoor_table_chair_set_01_chair_diff_2k.jpg"
		},
		{
			"mimeType":"image/jpeg",
			"name":"outdoor_table_chair_set_01_chair_arm_2k",
			"uri":"outdoor_table_chair_set_01_chair_arm_2k.jpg"
		},
		{
			"mimeType":"image/jpeg",
			"name":"outdoor_table_chair_set_01_table_nor_gl_2k",
			"uri":"outdoor_table_chair_set_01_table_nor_gl_2k.jpg"
		},
		{
			"mimeType":"image/jpeg",
			"name":"outdoor_table_chair_set_01_table_diff_2k",
			"uri":"outdoor_table_chair_set_01_table_diff_2k.jpg"
		},
		{
			"mimeType":"image/jpeg",
			"name":"outdoor_table_chair_set_01_table_arm_2k",
			"uri":"outdoor_table_chair_set_01_table_arm_2k.jpg"
		},
		{
			"mimeType":"image/png",
			"name":"Concrete046_4K-PNG_NormalGL",
			"uri":"Concrete046_4K-PNG_NormalGL.png"
		},
		{
			"mimeType":"image/png",
			"name":"Concrete046_4K-PNG_Color",
			"uri":"Concrete046_4K-PNG_Color.png"
		},
		{
			"mimeType":"image/png",
			"name":"Concrete046_4K-PNG_Roughness",
			"uri":"Concrete046_4K-PNG_Roughness.png"
		}
	],
	"accessors":[
		{
			"bufferView":0,
			"componentType":5126,
			"count":5012,
			"max":[
				0.12660439312458038,
				0.8526440858840942,
				0.8640562891960144
			],
			"min":[
				-0.34507811069488525,
				-0.005937529727816582,
				0.2645845413208008
			],
			"type":"VEC3"
		},
		{
			"bufferView":1,
			"componentType":5126,
			"count":5012,
			"type":"VEC3"
		},
		{
			"bufferView":2,
			"componentType":5126,
			"count":5012,
			"type":"VEC2"
		},
		{
			"bufferView":3,
			"componentType":5123,
			"count":11256,
			"type":"SCALAR"
		},
		{
			"bufferView":4,
			"componentType":5126,
			"count":3453,
			"max":[
				0.2661757171154022,
				0.7259218692779541,
				0.41698747873306274
			],
			"min":[
				-0.4255073368549347,
				-3.356562316980671e-08,
				-0.2748631536960602
			],
			"type":"VEC3"
		},
		{
			"bufferView":5,
			"componentType":5126,
			"count":3453,
			"type":"VEC3"
		},
		{
			"bufferView":6,
			"componentType":5126,
			"count":3453,
			"type":"VEC2"
		},
		{
			"bufferView":7,
			"componentType":5123,
			"count":6972,
			"type":"SCALAR"
		},
		{
			"bufferView":8,
			"componentType":5126,
			"count":4890,
			"max":[
				0.36703503131866455,
				0.8526440858840942,
				-0.17118015885353088
			],
			"min":[
				-0.23045846819877625,
				-0.005937529727816582,
				-0.8422229290008545
			],
			"type":"VEC3"
		},
		{
			"bufferView":9,
			"componentType":5126,
			"count":4890,
			"type":"VEC3"
		},
		{
			"bufferView":10,
			"componentType":5126,
			"count":4890,
			"type":"VEC2"
		},
		{
			"bufferView":11,
			"componentType":5123,
			"count":11256,
			"type":"SCALAR"
		},
		{
			"bufferView":12,
			"componentType":5126,
			"count":4,
			"max":[
				6.000000953674316,
				0,
				6
			],
			"min":[
				-6.000000953674316,
				0,
				-6
			],
			"type":"VEC3"
		},
		{
			"bufferView":13,
			"componentType":5126,
			"count":4,
			"type":"VEC3"
		},
		{
			"bufferView":14,
			"componentType":5126,
			"count":4,
			"type":"VEC2"
		},
		{
			"bufferView":15,
			"componentType":5123,
			"count":6,
			"type":"SCALAR"
		}
	],
	"bufferViews":[
		{
			"buffer":0,
			"byteLength":60144,
			"byteOffset":0,
			"target":34962
		},
		{
			"buffer":0,
			"byteLength":60144,
			"byteOffset":60144,
			"target":34962
		},
		{
			"buffer":0,
			"byteLength":40096,
			"byteOffset":120288,
			"target":34962
		},
		{
			"buffer":0,
			"byteLength":22512,
			"byteOffset":160384,
			"target":34963
		},
		{
			"buffer":0,
			"byteLength":41436,
			"byteOffset":182896,
			"target":34962
		},
		{
			"buffer":0,
			"byteLength":41436,
			"byteOffset":224332,
			"target":34962
		},
		{
			"buffer":0,
			"byteLength":27624,
			"byteOffset":265768,
			"target":34962
		},
		{
			"buffer":0,
			"byteLength":13944,
			"byteOffset":293392,
			"target":34963
		},
		{
			"buffer":0,
			"byteLength":58680,
			"byteOffset":307336,
			"target":34962
		},
		{
			"buffer":0,
			"byteLength":58680,
			"byteOffset":366016,
			"target":34962
		},
		{
			"buffer":0,
			"byteLength":39120,
			"byteOffset":424696,
			"target":34962
		},
		{
			"buffer":0,
			"byteLength":22512,
			"byteOffset":463816,
			"target":34963
		},
		{
			"buffer":0,
			"byteLength":48,
			"byteOffset":486328,
			"target":34962
		},
		{
			"buffer":0,
			"byteLength":48,
			"byteOffset":486376,
			"target":34962
		},
		{
			"buffer":0,
			"byteLength":32,
			"byteOffset":486424,
			"target":34962
		},
		{
			"buffer":0,
			"byteLength":12,
			"byteOffset":486456,
			"target":34963
		}
	],
	"samplers":[
		{
			"magFilter":9729,
			"minFilter":9987
		}
	],
	"buffers":[
		{
			"byteLength":486468,
			"uri":"demo1.bin"
		}
	]
}
